<?xml version="1.0" standalone="no"?>
<!DOCTYPE svg PUBLIC "-//W3C//DTD SVG 20010904//EN"
 "http://www.w3.org/TR/2001/REC-SVG-20010904/DTD/svg10.dtd">
<svg version="1.0" xmlns="http://www.w3.org/2000/svg"
 width="819.000000pt" height="819.000000pt" viewBox="0 0 819.000000 819.000000"
 preserveAspectRatio="xMidYMid meet">
<metadata>
Created by potrace 1.11, written by Peter Selinger 2001-2013
</metadata>
<g transform="translate(0.000000,819.000000) scale(0.100000,-0.100000)"
fill="#000000" stroke="none">
<path d="M3575 7900 c-17 -19 -18 -26 -6 -88 9 -46 26 -87 55 -132 l41 -65 -3
-104 c-2 -58 -5 -108 -8 -113 -3 -4 -20 -8 -39 -8 -19 0 -46 -5 -61 -10 -26
-10 -27 -12 -21 -70 l5 -60 -38 0 c-37 0 -39 2 -46 38 -12 68 -26 81 -95 84
l-61 3 -24 75 c-30 94 -30 130 1 205 18 43 25 79 25 125 0 62 -2 67 -29 83
-37 22 -96 22 -141 -1 -35 -17 -35 -18 -35 -82 l0 -65 -62 -3 -62 -3 -11 40
c-12 47 -36 74 -59 67 -9 -2 -41 -8 -71 -11 -30 -4 -66 -14 -79 -22 -21 -14
-23 -20 -17 -69 6 -50 4 -55 -19 -70 -14 -9 -42 -17 -63 -18 -36 -1 -37 0 -58
59 l-22 60 -48 -1 c-68 -1 -126 -31 -137 -70 -14 -48 22 -107 119 -200 l85
-80 -3 -79 -3 -79 -33 -7 c-53 -11 -58 -21 -44 -86 6 -31 11 -58 9 -59 -1 -1
-14 -5 -29 -9 -25 -6 -27 -4 -44 49 -20 62 -39 75 -87 57 -31 -12 -25 -21 -75
104 -36 90 -41 110 -44 205 -3 74 -9 115 -21 137 -17 31 -18 32 -70 26 -68 -8
-118 -26 -131 -46 -7 -11 -5 -30 7 -64 9 -26 17 -51 17 -55 0 -10 -67 -38 -89
-38 -10 0 -26 18 -39 44 -17 37 -27 46 -55 51 -46 9 -114 -25 -123 -61 -15
-58 27 -126 118 -194 36 -27 53 -49 71 -95 14 -33 102 -258 197 -499 172 -439
173 -439 156 -468 -12 -19 -15 -38 -11 -58 7 -34 16 -41 58 -49 26 -6 33 -15
64 -100 35 -92 35 -93 18 -131 -10 -22 -14 -47 -10 -59 6 -19 3 -21 -34 -21
l-41 0 7 122 c6 117 6 121 -13 114 -10 -5 -42 -16 -69 -26 -77 -27 -167 -75
-194 -104 -26 -28 -51 -34 -51 -12 0 7 -11 34 -25 61 -14 26 -39 83 -56 126
l-31 79 -74 -66 c-64 -58 -82 -81 -139 -189 -36 -68 -65 -135 -65 -149 0 -14
-7 -43 -15 -63 -18 -48 -35 -152 -35 -224 0 -70 48 -215 90 -272 l31 -42 -51
-6 c-59 -8 -74 -19 -101 -70 -28 -55 -24 -76 21 -121 38 -39 39 -41 25 -68
-20 -39 -19 -69 4 -107 19 -31 19 -31 1 -48 -16 -14 -20 -15 -24 -4 -2 8 -17
52 -32 99 -35 112 -62 155 -150 249 -73 78 -74 79 -85 155 -6 42 -15 76 -20
76 -19 0 -38 -34 -50 -87 -7 -32 -21 -76 -32 -98 -37 -75 -68 -180 -83 -285
-8 -58 -16 -116 -18 -130 -2 -14 -16 -57 -30 -97 -46 -128 -55 -320 -17 -391
5 -9 18 -53 30 -97 13 -48 33 -94 51 -116 16 -20 36 -60 46 -90 13 -40 34 -72
83 -124 36 -39 78 -84 92 -100 15 -17 56 -55 92 -85 80 -67 83 -86 11 -82 -43
3 -55 0 -82 -23 -19 -16 -37 -44 -45 -70 l-12 -44 -33 21 c-18 11 -55 53 -83
94 -29 41 -55 74 -59 74 -5 0 -15 3 -24 6 -13 5 -16 -2 -16 -37 0 -24 5 -62
10 -83 5 -24 5 -126 -2 -261 -9 -213 -9 -225 11 -290 12 -37 21 -82 21 -99 0
-44 54 -201 86 -251 50 -76 96 -126 135 -145 24 -13 46 -34 58 -58 22 -44 72
-80 236 -172 102 -58 118 -64 210 -77 180 -25 167 -21 145 -43 -11 -11 -22
-31 -26 -45 -7 -27 -1 -90 9 -115 6 -12 -9 -20 -67 -38 -97 -30 -160 -71 -175
-112 -6 -18 -11 -66 -11 -106 0 -70 -1 -74 -22 -74 -167 -3 -388 -37 -388 -60
0 -3 12 -13 28 -22 43 -26 242 -218 242 -235 0 -8 -42 -69 -93 -136 -121 -157
-152 -206 -141 -216 5 -5 42 -5 84 0 133 16 323 21 415 11 50 -6 175 -35 280
-65 105 -30 205 -58 223 -62 17 -3 32 -10 32 -14 0 -13 -85 -89 -120 -106 -45
-23 -45 -22 -30 -40 9 -10 31 -15 74 -15 55 0 70 -5 140 -46 59 -34 85 -45
106 -41 15 4 53 -4 91 -17 35 -13 132 -36 215 -50 141 -24 154 -25 194 -11 23
8 51 15 62 15 41 0 128 32 162 59 21 17 54 31 82 36 30 4 73 24 127 59 47 30
99 55 122 59 26 4 46 15 58 32 22 30 77 35 98 8 8 -9 45 -36 83 -61 l68 -44
-53 -29 -53 -29 -21 20 c-21 19 -23 20 -36 4 -21 -25 -139 -99 -211 -132 -113
-51 -166 -117 -154 -191 8 -50 32 -71 80 -71 46 0 78 18 191 110 84 69 162
110 208 110 38 0 57 15 57 46 0 13 17 35 45 58 l45 37 45 -38 c27 -22 45 -46
45 -58 0 -30 19 -45 59 -45 50 0 124 -40 230 -126 116 -93 141 -107 187 -98
60 11 81 71 50 146 -17 40 -92 102 -144 119 -51 17 -150 76 -196 117 -36 32
-39 33 -49 16 -5 -11 -11 -20 -12 -22 -3 -3 -85 33 -104 46 -11 8 -4 16 30 38
24 16 63 44 87 62 24 17 48 32 54 32 5 0 62 -37 126 -83 187 -134 204 -144
262 -156 31 -7 70 -24 90 -40 22 -17 59 -32 100 -41 36 -7 82 -19 103 -26 37
-13 60 -12 263 15 39 6 102 22 139 36 37 14 84 25 104 25 26 0 62 14 117 45
70 40 85 45 140 45 57 0 74 8 74 35 0 1 -17 10 -39 18 -32 13 -160 131 -169
157 -2 4 11 11 29 15 17 4 72 20 123 37 200 65 351 98 485 104 113 6 271 -3
389 -22 60 -9 42 26 -114 235 l-93 123 27 33 c15 18 78 76 141 130 111 96 113
98 90 110 -40 21 -118 33 -255 41 l-131 7 -6 84 c-7 126 -42 163 -199 212 -35
12 -36 13 -27 44 13 47 11 61 -16 100 -13 20 -21 38 -17 40 4 3 34 8 67 11
108 13 210 37 230 55 11 10 72 47 135 81 134 74 147 84 165 127 8 18 29 41 47
52 111 66 203 229 229 406 6 38 17 93 26 121 13 43 14 82 6 270 -6 156 -5 236
3 277 11 58 9 103 -6 112 -10 6 -62 -49 -115 -123 -48 -66 -88 -93 -93 -63 -9
49 -14 62 -38 90 -28 34 -81 49 -111 32 -14 -7 -23 -7 -31 1 -14 14 9 44 74
96 27 21 60 51 74 67 14 15 53 58 88 95 42 45 68 83 79 116 9 27 31 68 48 91
18 24 41 74 54 120 12 43 29 95 37 116 10 26 15 77 15 150 0 126 -10 192 -40
257 -11 25 -21 59 -21 75 -1 93 -70 368 -110 439 -10 17 -21 49 -25 71 -8 46
-33 105 -46 105 -11 0 -29 -68 -29 -114 0 -34 -8 -47 -74 -115 -83 -86 -146
-195 -172 -301 -9 -36 -18 -67 -20 -69 -2 -2 -13 4 -24 14 -20 18 -20 18 0 50
23 38 26 92 6 121 -13 19 -12 22 19 47 44 35 50 77 20 138 -25 48 -57 69 -105
69 -17 0 -30 3 -30 6 0 3 14 26 31 50 17 25 44 84 60 132 29 86 30 88 19 192
-6 58 -18 127 -26 154 -7 27 -14 60 -14 73 0 13 -23 71 -50 129 -43 88 -64
120 -132 190 -45 47 -86 83 -91 81 -6 -2 -21 -30 -35 -63 -20 -51 -90 -200
-99 -213 -2 -3 -16 7 -31 20 -53 49 -95 72 -271 146 -12 5 -13 -13 -8 -120 l7
-127 -54 0 -53 0 -6 53 c-4 44 1 66 31 141 22 55 42 90 52 93 25 7 63 61 63
90 -1 14 -6 35 -12 47 -11 19 12 84 179 511 191 488 192 490 238 530 90 77
110 101 122 146 11 38 10 48 -6 79 -42 78 -121 77 -164 -2 -14 -26 -29 -50
-33 -54 -10 -10 -97 26 -97 40 0 7 7 34 17 61 16 47 16 49 -6 66 -12 10 -43
21 -69 24 -26 3 -59 8 -73 10 -17 3 -33 -2 -43 -14 -20 -22 -36 -105 -36 -192
0 -56 -7 -87 -41 -175 l-41 -106 -38 6 c-56 9 -68 0 -81 -61 -12 -51 -14 -54
-38 -48 -38 9 -41 15 -29 68 13 62 8 73 -39 80 l-38 6 3 83 c5 102 19 137 68
174 98 71 137 128 132 192 -4 48 -41 69 -128 74 l-65 3 -12 -49 c-7 -27 -17
-54 -22 -59 -12 -12 -102 10 -113 27 -4 6 -5 31 -2 56 7 59 -8 77 -75 90 -122
23 -141 15 -155 -62 -8 -42 -10 -43 -90 -32 l-48 7 4 66 c3 61 1 66 -22 78
-26 13 -136 18 -164 7 -22 -9 -23 -152 0 -195 33 -64 35 -127 7 -221 l-26 -87
-56 -3 c-62 -3 -75 -17 -86 -90 -5 -33 -9 -38 -33 -38 -46 0 -56 13 -49 63 9
61 -5 75 -73 79 l-54 3 -14 100 c-15 115 -14 119 69 215 36 42 51 69 60 109
19 92 -9 121 -120 121 -71 0 -84 -12 -91 -84 l-5 -51 -39 -3 c-65 -6 -86 4
-86 39 0 16 -7 46 -15 66 l-15 36 -96 -5 c-109 -6 -114 -9 -114 -80 l0 -48
-64 0 c-71 0 -76 4 -76 70 0 50 -18 60 -108 60 -56 0 -72 -4 -87 -20z m168
-67 c2 -32 4 -58 3 -59 0 -1 -31 -4 -68 -7 l-66 -6 -12 50 c-7 29 -9 54 -4 59
11 10 46 17 100 19 l42 1 5 -57z m371 41 c3 -9 6 -33 6 -55 l0 -39 -90 0 -90
0 0 55 0 55 84 0 c67 0 85 -3 90 -16z m337 -3 c21 -17 22 -23 14 -57 l-10 -39
-74 -3 c-64 -3 -73 -1 -67 13 3 9 6 37 6 61 l0 44 54 0 c38 0 61 -6 77 -19z
m-1197 -27 c12 -5 16 -20 16 -59 l0 -54 -47 -6 c-27 -3 -58 -8 -70 -11 -22 -4
-23 -1 -23 56 0 54 3 62 23 70 26 10 79 13 101 4z m1642 -12 c7 -4 9 -28 6
-65 l-5 -59 -30 6 c-16 3 -47 6 -68 6 l-39 0 0 60 0 60 63 0 c34 0 67 -4 73
-8z m-1967 -79 c19 -68 19 -68 -74 -84 l-85 -15 -6 32 c-12 65 -4 78 56 91 92
19 98 18 109 -24z m2285 17 l58 -12 -6 -51 c-4 -29 -9 -53 -10 -54 -3 -4 -159
28 -165 33 -2 1 2 26 9 54 11 45 15 51 34 47 11 -3 47 -11 80 -17z m-793 -47
c-5 -10 -25 -33 -43 -50 l-34 -33 -332 7 -332 6 -20 32 c-11 18 -20 35 -20 38
0 10 99 13 453 15 319 2 337 1 328 -15z m-1852 -54 c7 -27 11 -52 8 -55 -6 -6
-107 -34 -123 -34 -10 0 -44 61 -44 80 0 21 76 55 131 59 10 1 19 -15 28 -50z
m3000 30 c42 -15 56 -50 36 -90 -9 -16 -22 -29 -29 -29 -34 0 -119 25 -123 36
-2 7 1 30 7 53 10 38 14 41 44 41 18 0 48 -5 65 -11z m-2319 -19 c0 -6 -6 -26
-14 -44 l-14 -33 -168 -27 c-93 -15 -241 -44 -329 -64 l-161 -38 -46 37 -46
36 36 11 c92 27 646 128 715 131 15 0 27 -4 27 -9z m1700 -15 c158 -22 530
-95 582 -114 19 -7 17 -10 -24 -44 l-46 -37 -272 59 c-149 33 -298 63 -329 67
-56 6 -57 6 -73 50 -8 24 -15 44 -14 44 0 0 80 -11 176 -25z m-2763 -47 c6 -7
13 -30 17 -50 6 -35 5 -38 -21 -44 -15 -3 -41 -10 -57 -15 -16 -5 -35 -9 -42
-9 -13 0 -51 87 -41 96 7 7 96 32 118 33 9 1 21 -5 26 -11z m1693 -42 l0 -43
-67 -6 c-115 -11 -111 -13 -115 38 -4 52 -4 52 105 54 l77 1 0 -44z m252 -1
l-4 -45 -109 0 -109 0 0 45 0 45 113 0 112 0 -3 -45z m143 39 l50 -6 0 -44 0
-44 -45 0 c-25 0 -61 3 -80 6 -35 6 -35 6 -31 50 3 49 5 50 106 38z m1698 -23
c18 -17 18 -19 0 -57 -9 -21 -18 -40 -19 -42 -1 -2 -32 5 -69 14 l-67 17 5 34
c9 56 24 66 82 58 27 -3 58 -14 68 -24z m-2753 -40 c0 -10 3 -32 6 -48 l6 -30
-89 -10 c-48 -5 -89 -9 -90 -9 0 1 -3 21 -4 46 l-4 45 65 11 c98 17 110 17
110 -5z m1762 -7 c7 -4 1 -82 -7 -92 -2 -2 -42 2 -90 9 l-87 12 6 30 c3 16 6
36 6 45 0 13 12 14 82 8 44 -4 85 -9 90 -12z m-1970 -64 l3 -35 -103 -21
c-114 -24 -113 -24 -116 37 l-1 32 100 22 c109 23 111 23 117 -35z m2128 34
c47 -9 89 -20 93 -24 5 -4 3 -26 -3 -49 -8 -32 -15 -41 -28 -37 -9 3 -57 13
-105 22 -81 16 -88 19 -83 38 3 12 6 31 6 44 0 27 8 27 120 6z m-3250 -34 c11
-21 20 -41 20 -44 0 -2 -26 -16 -57 -31 -55 -25 -58 -25 -71 -8 -16 23 -26 59
-19 76 6 16 65 46 89 47 11 0 26 -16 38 -40z m4336 14 c40 -24 45 -30 39 -53
-3 -14 -13 -36 -21 -49 l-15 -22 -52 26 c-28 15 -53 28 -55 29 -6 5 42 95 51
95 5 0 29 -12 53 -26z m-2226 -44 l0 -50 -85 0 -85 0 0 50 0 50 85 0 85 0 0
-50z m-1792 -12 l-3 -52 -144 -53 -145 -52 -43 31 c-24 17 -43 34 -43 38 0 16
315 139 358 140 22 0 23 -3 20 -52z m1587 11 c4 -22 4 -43 1 -46 -3 -4 -30 -8
-59 -11 l-52 -4 3 51 4 51 48 0 48 0 7 -41z m413 -1 l-3 -43 -82 -3 -83 -3 0
46 0 45 86 0 85 0 -3 -42z m118 32 c10 0 14 -13 14 -45 l0 -45 -51 0 -52 0 7
38 c3 20 6 43 6 51 0 10 8 12 31 7 17 -3 38 -6 45 -6z m1641 -33 c40 -14 109
-43 154 -64 l82 -37 -39 -33 c-22 -18 -45 -33 -53 -33 -8 0 -76 23 -152 51
l-139 51 0 53 0 52 38 -7 c20 -4 69 -19 109 -33z m-3202 -12 l11 -40 -76 -21
c-41 -12 -78 -18 -81 -15 -4 3 -9 25 -13 48 -6 40 -5 43 21 49 16 3 42 10 58
14 53 15 67 8 80 -35z m2598 28 c34 -9 63 -18 65 -19 3 -2 -17 -80 -23 -91 0
-1 -32 6 -70 16 -69 17 -70 18 -69 50 2 40 10 61 24 61 6 0 38 -8 73 -17z
m-2105 -65 c6 -23 10 -44 8 -45 -2 -2 -26 -6 -54 -10 l-50 -6 -9 44 c-10 49
-2 56 63 58 29 1 32 -3 42 -41z m1602 33 c25 -6 25 -8 17 -48 -8 -42 -9 -43
-50 -43 -63 0 -71 9 -56 59 13 43 26 48 89 32z m-1745 -38 c15 -69 22 -63 -80
-79 -22 -3 -47 -8 -56 -10 -12 -3 -19 7 -28 42 -7 26 -11 48 -9 49 5 5 111 23
140 24 22 1 29 -4 33 -26z m1903 13 c35 -8 65 -16 67 -18 7 -6 -17 -88 -26
-88 -7 0 -72 12 -136 25 -14 3 -20 11 -18 22 17 84 11 81 113 59z m-2104 -52
c4 -19 9 -41 12 -48 6 -16 -152 -54 -166 -40 -4 5 -11 26 -15 46 -7 36 -6 37
32 46 70 18 118 30 124 31 4 1 10 -15 13 -35z m2322 10 c58 -17 59 -19 43 -77
-8 -29 -14 -37 -27 -33 -9 3 -47 13 -85 22 -53 13 -67 20 -63 33 3 9 8 28 12
44 8 33 37 35 120 11z m-2986 -89 c0 -5 -40 -24 -89 -42 l-90 -31 -15 46 c-9
25 -15 46 -13 47 1 1 40 15 87 31 l85 30 17 -36 c10 -19 18 -39 18 -45z m1390
58 c0 -55 -10 -73 -41 -73 -24 0 -29 5 -35 35 -9 51 0 65 41 65 32 0 35 -3 35
-27z m240 -12 c0 -37 -2 -39 -37 -45 -57 -9 -173 -7 -173 3 0 5 3 22 6 39 7
35 17 38 132 41 l72 1 0 -39z m256 23 c-3 -9 -6 -27 -6 -40 0 -24 0 -24 -110
-24 l-110 0 0 40 0 40 116 0 c102 0 115 -2 110 -16z m210 2 c1 0 4 -18 8 -38
l7 -38 -64 0 c-36 0 -79 3 -96 6 -28 6 -31 10 -31 46 l0 40 88 -7 c48 -4 88
-8 88 -9z m1633 -62 c9 -9 -21 -85 -32 -81 -7 2 -49 16 -94 31 l-82 27 16 37
c8 20 17 40 19 44 4 6 162 -46 173 -58z m-3267 17 c5 -18 7 -39 4 -46 -5 -13
-81 -36 -91 -27 -3 3 -5 24 -5 48 0 37 3 44 28 52 41 16 55 10 64 -27z m703 7
c4 -18 9 -41 11 -50 5 -15 -2 -18 -39 -18 -42 0 -44 1 -55 39 -15 50 -16 49
11 54 57 11 65 8 72 -25z m1061 -15 c-3 -25 -8 -48 -10 -50 -2 -3 -20 -1 -39
2 -33 6 -35 9 -39 51 l-3 44 49 0 49 0 -7 -47z m210 31 c21 -5 21 -8 8 -52
-17 -56 -16 -54 -48 -46 -21 5 -26 12 -26 39 0 62 13 73 66 59z m693 0 c28 -6
31 -10 31 -43 0 -57 -10 -65 -59 -50 -43 13 -45 17 -35 68 7 33 12 35 63 25z
m-2080 -45 c7 -23 11 -43 9 -45 -3 -2 -40 -8 -84 -14 -43 -6 -89 -13 -101 -15
-18 -4 -22 1 -28 36 -4 22 -5 42 -3 45 3 2 45 10 94 18 49 7 92 14 95 15 3 0
11 -17 18 -40z m1610 15 c32 -7 33 -8 27 -48 -4 -22 -8 -41 -9 -43 -4 -4 -198
25 -204 30 -3 3 1 22 9 42 l13 37 66 -6 c36 -3 80 -9 98 -12z m-2889 -51 c8
-21 16 -41 18 -44 2 -5 -51 -29 -64 -29 -6 0 -34 59 -34 73 0 11 34 31 60 36
4 1 12 -16 20 -36z m1033 30 c3 -5 7 -24 9 -43 l3 -35 -90 -17 c-125 -23 -121
-24 -133 22 l-10 39 57 11 c31 7 70 15 86 20 39 11 73 12 78 3z m2053 -19 l92
-17 -13 -36 c-6 -20 -18 -37 -26 -39 -21 -4 -189 32 -189 41 0 4 0 23 0 43 0
32 2 36 23 31 12 -3 63 -14 113 -23z m957 5 c12 -7 23 -13 25 -14 2 -1 -4 -21
-13 -43 -16 -39 -17 -40 -51 -29 -28 9 -33 14 -28 31 22 71 27 75 67 55z
m-2298 -74 c4 -31 6 -57 4 -59 -2 -2 -28 -6 -56 -9 l-53 -6 0 59 0 59 43 4
c23 2 45 4 49 5 4 1 10 -23 13 -53z m79 36 c-18 -11 -34 -25 -37 -33 -3 -7 -6
2 -6 20 -1 31 1 32 37 32 l37 0 -31 -19z m388 -7 l-5 -25 -26 23 c-14 13 -28
24 -30 26 -2 1 12 2 31 2 32 0 35 -2 30 -26z m100 20 c36 -6 36 -7 40 -60 l3
-54 -52 0 c-28 0 -54 3 -56 8 -9 14 6 112 17 112 6 0 27 -3 48 -6z m-2047 -40
c20 -49 20 -50 -16 -63 -47 -16 -56 -14 -67 17 -5 15 -13 34 -17 43 -5 12 1
20 22 27 49 18 62 14 78 -24z m1855 14 c49 -25 94 -82 110 -140 16 -56 27
-248 22 -385 l-4 -123 -25 0 -26 0 5 172 c5 177 -11 316 -44 385 -21 44 -83
73 -156 73 -96 0 -155 -33 -188 -106 -16 -35 -18 -66 -16 -281 l3 -243 -26 0
-25 0 0 223 c0 173 3 235 16 276 37 127 93 169 229 170 65 1 89 -3 125 -21z
m-1337 5 c3 -5 8 -22 11 -38 l7 -30 -78 -17 c-43 -9 -86 -19 -95 -23 -16 -6
-18 -1 -18 37 l0 45 68 15 c81 19 99 20 105 11z m823 -24 c-3 -17 -6 -42 -6
-54 0 -24 4 -23 -167 -41 l-62 -6 -15 52 c-9 30 -13 56 -10 59 6 7 117 17 208
19 l59 2 -7 -31z m1714 11 c57 -17 63 -24 56 -65 -4 -22 -12 -35 -19 -32 -7 2
-47 13 -90 23 l-78 18 7 30 c3 17 9 35 11 40 6 9 55 3 113 -14z m472 10 l36
-10 -16 -43 c-9 -23 -17 -44 -18 -46 -2 -2 -23 5 -47 14 l-45 17 16 39 c16 43
20 44 74 29z m-1263 -11 c64 -6 117 -12 118 -13 1 -1 -5 -26 -15 -55 l-17 -53
-105 7 c-62 4 -108 11 -112 18 -4 7 -8 26 -8 44 0 17 -3 38 -6 47 -7 19 -6 19
145 5z m-1955 -40 c7 -47 2 -59 -24 -59 -13 0 -22 9 -26 28 -3 15 -8 33 -10
41 -5 16 13 31 37 31 11 0 18 -12 23 -41z m742 -9 c8 -25 12 -50 10 -56 -3 -7
-27 -14 -54 -15 l-50 -4 -6 35 c-10 63 -7 78 17 83 55 11 69 4 83 -43z m-1172
4 c9 -21 13 -40 9 -44 -11 -10 -153 -63 -158 -59 -1 2 -10 21 -19 42 -17 43
-25 35 79 76 67 27 69 26 89 -15z m2631 -21 c-4 -32 -8 -59 -9 -60 -1 -1 -27
1 -59 4 -63 6 -62 4 -31 80 13 31 18 33 60 33 l46 0 -7 -57z m1239 -3 c10 -10
2 -48 -16 -73 -13 -17 -17 -16 -91 10 -84 30 -83 29 -57 97 l9 26 73 -26 c40
-14 77 -30 82 -34z m-2840 34 c12 -30 6 -34 -29 -17 -19 9 -32 20 -29 25 9 14
52 9 58 -8z m1701 7 c19 -8 19 -8 -5 -16 -14 -4 -33 -14 -42 -23 -17 -14 -18
-13 -18 10 0 38 19 47 65 29z m592 -2 c7 -7 7 -23 1 -50 -9 -32 -15 -39 -34
-39 -22 0 -24 4 -24 50 0 46 2 50 23 50 13 0 28 -5 34 -11z m-3071 -59 c6 -27
7 -50 3 -50 -4 0 -14 -3 -22 -6 -10 -3 -19 8 -31 36 -20 51 -20 57 2 63 35 9
38 6 48 -43z m699 19 c47 -13 94 -60 126 -125 17 -37 114 -464 106 -470 -1 -1
-12 -5 -24 -8 -26 -8 -24 -16 -53 164 -45 266 -83 364 -156 395 -51 21 -119
18 -184 -8 -111 -45 -124 -136 -64 -439 36 -184 36 -197 -1 -198 -6 0 -28 88
-49 195 -45 230 -47 320 -6 393 51 90 185 134 305 101z m2550 1 c11 0 11 -8
-2 -45 -17 -50 -24 -58 -47 -49 -19 7 -20 29 -5 73 8 22 16 30 26 27 8 -3 21
-6 28 -6z m-522 -29 c85 -52 112 -121 104 -259 -6 -86 -66 -394 -80 -408 -3
-3 -14 -3 -24 0 -19 6 -18 14 18 184 57 263 49 380 -28 439 -31 24 -48 29
-113 31 -167 8 -204 -49 -260 -403 -30 -187 -27 -177 -53 -169 -12 3 -23 7
-24 8 -1 1 9 62 22 136 56 300 88 390 159 442 41 30 41 30 144 25 78 -5 111
-11 135 -26z m-2334 -15 c-18 -19 -34 -34 -35 -33 -1 1 -4 13 -6 26 -2 19 3
26 22 32 49 14 52 9 19 -25z m-474 -13 c8 -20 14 -37 13 -38 -10 -6 -155 -55
-165 -55 -10 0 -40 68 -31 74 8 6 144 55 155 55 7 1 20 -15 28 -36z m2931 24
c2 -2 1 -13 -3 -25 -5 -22 -23 -31 -23 -12 0 5 -10 19 -22 31 l-23 22 34 -7
c19 -3 36 -7 37 -9z m612 -51 c2 -3 -18 -68 -24 -74 -5 -7 -174 52 -174 60 0
5 6 24 14 43 l15 34 83 -30 c45 -17 84 -32 86 -33z m-3139 0 c17 -68 15 -73
-26 -80 -21 -4 -46 -9 -55 -12 -16 -5 -18 2 -18 54 l0 60 38 10 c20 5 40 10
43 11 4 1 12 -19 18 -43z m1007 -5 l-10 -49 -45 -4 c-25 -3 -47 -3 -49 -2 -2
1 0 23 3 48 7 44 8 45 49 49 22 2 46 4 52 5 7 1 8 -12 0 -47z m1637 29 c9 0 9
-107 -1 -114 -15 -9 -102 17 -102 31 0 8 5 34 11 57 l11 44 36 -9 c21 -5 40
-9 45 -9z m-1767 -6 c-3 -9 -6 -31 -6 -50 0 -32 -2 -34 -35 -34 -23 0 -35 5
-35 14 0 7 -3 27 -6 44 -7 33 -11 30 75 40 8 1 11 -4 7 -14z m769 -11 c14 -67
17 -63 -36 -63 -35 0 -49 4 -49 14 0 7 -3 28 -6 45 l-6 31 46 0 c42 0 46 -2
51 -27z m-1781 1 c3 -9 6 -35 6 -59 l0 -43 -67 -16 c-38 -9 -75 -19 -84 -22
-12 -3 -22 9 -38 47 -12 28 -20 53 -17 56 7 7 158 51 177 52 9 1 20 -6 23 -15z
m891 4 c2 -7 6 -30 10 -51 l6 -38 -42 3 c-40 3 -43 5 -54 45 l-13 42 37 4 c20
2 40 4 44 5 4 1 9 -4 12 -10z m1012 -12 c1 -1 -1 -21 -4 -45 -6 -42 -7 -43
-36 -37 -38 8 -35 4 -43 55 l-7 43 44 -7 c24 -4 45 -8 46 -9z m-1124 -41 l16
-45 -34 0 c-18 0 -40 -3 -49 -6 -12 -5 -21 5 -35 37 -18 44 -18 44 3 51 12 3
35 6 53 7 28 1 32 -3 46 -44z m1231 36 c6 -9 -12 -70 -24 -84 -4 -4 -18 -5
-31 -2 -22 5 -24 10 -21 50 4 44 5 45 37 45 19 0 36 -4 39 -9z m145 -7 c4 -4
-19 -65 -29 -77 -3 -4 -27 -4 -52 -1 l-46 6 15 45 15 44 47 -7 c25 -4 48 -8
50 -10z m772 -9 c93 -23 93 -24 73 -76 -9 -24 -20 -47 -23 -51 -4 -4 -41 2
-84 14 l-77 21 0 43 c0 55 8 76 29 70 9 -3 46 -12 82 -21z m-3403 -22 c6 -20
10 -38 9 -40 -2 -1 -20 -9 -40 -18 -30 -12 -38 -13 -42 -3 -2 7 -9 26 -15 41
-9 26 -7 29 23 42 47 21 52 19 65 -22z m3831 16 c34 -12 36 -20 20 -66 l-10
-31 -40 16 c-41 16 -45 25 -29 66 11 29 15 30 59 15z m-3571 -68 l20 -48 -36
-17 c-40 -20 -44 -17 -65 46 l-15 47 26 10 c44 16 48 13 70 -38z m3341 24 c3
-3 -3 -30 -13 -60 l-19 -54 -35 15 c-20 8 -37 16 -39 18 -2 1 6 24 18 51 20
44 23 47 52 41 17 -3 33 -9 36 -11z m-3461 -40 c-1 -1 -14 2 -28 7 -24 10 -24
11 -5 18 13 5 23 3 28 -7 5 -8 7 -16 5 -18z m1462 -24 c0 -54 -8 -61 -66 -61
l-35 0 3 47 c3 44 5 48 33 54 64 14 65 13 65 -40z m670 30 c0 -10 3 -33 6 -50
l7 -31 -52 0 -51 0 0 34 c0 19 -3 41 -6 50 -5 13 2 16 45 16 43 0 51 -3 51
-19z m1398 11 c9 -6 6 -12 -13 -20 -20 -9 -25 -9 -25 2 0 24 16 32 38 18z
m-3058 -61 c0 -45 -2 -49 -27 -55 -16 -4 -36 -9 -45 -12 -16 -5 -18 2 -18 44
l0 49 43 10 c23 6 43 11 45 12 1 0 2 -21 2 -48z m855 2 c-4 -27 -8 -49 -8 -49
-1 -1 -28 -4 -59 -7 l-57 -5 -15 46 c-9 25 -16 47 -16 48 0 4 64 10 119 12
l43 2 -7 -47z m-174 -16 c18 -44 18 -47 1 -47 -9 0 -33 -3 -53 -6 -36 -6 -36
-6 -48 39 -6 25 -11 48 -11 51 0 5 66 14 84 11 5 0 17 -22 27 -48z m1139 43
l28 0 -16 -51 -16 -51 -48 4 c-27 3 -51 7 -53 10 -3 2 -8 26 -12 53 l-6 48 48
-6 c26 -4 60 -7 75 -7z m783 4 c37 -7 37 -7 37 -55 0 -55 -7 -59 -65 -35 -32
14 -35 19 -35 55 0 44 1 45 63 35z m-3110 -18 c43 -18 66 -45 125 -149 55 -97
176 -392 167 -407 -18 -29 -37 0 -90 138 -83 213 -121 285 -179 334 -42 36
-57 42 -110 47 -46 5 -62 10 -64 23 -2 11 5 18 20 21 48 9 100 7 131 -7z
m2481 6 c3 -5 0 -28 -6 -51 l-11 -43 -44 5 c-24 2 -46 7 -49 10 -3 3 0 23 6
46 11 40 12 41 55 41 24 0 46 -4 49 -8z m-2102 -32 c0 -16 1 -35 2 -41 1 -14
-41 -31 -48 -20 -3 4 -8 27 -12 49 -7 42 -6 42 25 42 27 0 31 -3 33 -30z
m3334 17 c3 -3 4 -13 1 -22 -5 -11 -21 -15 -57 -15 -132 0 -187 -74 -310 -412
-39 -110 -58 -136 -75 -108 -4 6 13 61 36 123 101 266 181 403 258 439 19 9
137 5 147 -5z m-3419 -51 c15 -45 15 -45 -16 -48 -19 -2 -26 4 -37 36 -11 32
-12 41 -2 48 24 15 41 3 55 -36z m2939 2 c-9 -53 -12 -57 -36 -51 -22 6 -23
14 -14 62 5 25 11 31 32 31 23 0 24 -2 18 -42z m101 8 c1 -1 -7 -20 -17 -43
-15 -34 -22 -41 -39 -36 -24 6 -24 6 -10 56 9 34 12 37 37 31 15 -4 28 -7 29
-8z m-3126 -34 l16 -39 -29 -11 c-27 -10 -31 -8 -49 21 -23 39 -23 43 -1 56
31 18 47 11 63 -27z m3196 26 c15 -7 29 -13 31 -14 2 -1 -6 -20 -17 -43 -20
-38 -23 -40 -46 -29 -28 13 -30 21 -14 67 13 36 10 35 46 19z m-1217 -50 c0
-18 3 -43 6 -55 6 -22 4 -23 -55 -23 l-61 0 0 55 0 55 55 0 55 0 0 -32z m-690
-27 c0 -54 -9 -61 -82 -61 l-38 0 7 48 c7 55 14 62 71 62 l42 0 0 -49z m-146
-3 c-11 -71 -23 -79 -24 -15 0 44 3 57 15 57 12 0 14 -8 9 -42z m-834 18 c0
-7 3 -27 6 -43 6 -29 5 -30 -45 -40 l-51 -10 0 48 c0 41 3 48 23 52 46 9 67 7
67 -7z m710 -31 c7 -25 10 -48 8 -51 -3 -2 -28 -7 -56 -11 -57 -6 -63 -1 -66
59 -1 30 2 33 34 39 66 12 67 11 80 -36z m65 -1 c6 -42 2 -64 -10 -52 -3 2
-11 26 -19 51 -13 44 -13 47 4 47 13 0 19 -11 25 -46z m1815 36 c34 -9 35 -11
32 -55 -2 -25 -6 -45 -9 -45 -2 0 -25 5 -50 11 -43 11 -45 13 -39 42 3 16 6
36 6 43 0 16 13 17 60 4z m-2720 -50 c0 -45 -3 -52 -26 -60 -42 -16 -53 -12
-69 26 -8 20 -15 40 -15 45 0 6 74 34 103 38 4 1 7 -22 7 -49z m1914 42 c2 -4
-8 -52 -23 -107 l-28 -100 -11 91 c-17 128 -18 124 22 124 19 0 37 -4 40 -8z
m151 -2 c3 -6 3 -30 -1 -55 l-6 -46 -62 7 c-33 4 -62 8 -63 9 -2 1 4 23 13 48
l16 47 48 0 c27 0 52 -5 55 -10z m801 -34 l31 -11 -19 -44 c-18 -42 -19 -43
-54 -38 -20 4 -39 8 -41 11 -3 3 -2 28 2 56 8 56 3 54 81 26z m-2998 -46 l21
-51 -22 -8 c-19 -8 -25 -3 -46 37 -22 44 -22 46 -5 59 27 19 30 17 52 -37z
m3096 30 c23 -8 25 -12 16 -35 -32 -81 -28 -76 -52 -63 -13 7 -24 13 -26 14
-3 1 31 94 35 94 1 0 13 -4 27 -10z m-1228 -86 c-3 -26 -6 -55 -6 -65 0 -13
-7 -19 -22 -19 -22 0 -23 3 -20 65 4 62 5 65 29 65 25 0 25 -2 19 -46z m-1578
-11 c9 -40 8 -50 -4 -59 -13 -11 -94 -28 -99 -22 -1 2 -5 26 -7 55 l-5 52 36
9 c63 17 67 16 79 -35z m872 -13 c0 -57 -1 -60 -25 -60 -22 0 -25 4 -25 34 0
46 16 86 35 86 12 0 15 -13 15 -60z m80 -1 c0 -57 -1 -60 -22 -57 -20 3 -23
10 -26 61 -3 55 -2 57 23 57 24 0 25 -2 25 -61z m710 19 c0 -24 3 -53 6 -65 6
-21 3 -23 -31 -23 -30 0 -36 3 -31 16 3 9 6 38 6 65 0 46 2 49 25 49 23 0 25
-4 25 -42z m876 31 l44 -11 0 -58 0 -58 -60 15 c-47 12 -59 19 -56 32 3 9 8
33 12 54 3 20 8 37 11 37 2 0 24 -5 49 -11z m-1746 -13 c0 -7 -3 -35 -7 -61
l-6 -47 -18 58 c-10 33 -19 60 -19 62 0 1 11 2 25 2 14 0 25 -6 25 -14z m-65
-48 c8 -28 14 -53 12 -54 -1 -1 -14 -5 -30 -9 -24 -6 -27 -4 -27 16 0 13 -3
41 -6 62 -6 33 -4 37 14 37 17 0 24 -11 37 -52z m1071 -5 c-8 -67 -12 -73 -48
-66 l-26 5 20 59 c16 46 24 59 40 59 19 0 20 -4 14 -57z m-1947 5 c-1 -37 -2
-39 -9 -18 -12 36 -12 60 0 60 6 0 10 -19 9 -42z m781 35 c1 -5 5 -28 10 -53
6 -32 5 -47 -3 -52 -25 -16 -35 -7 -42 35 -3 23 -9 50 -11 60 -4 13 1 17 20
17 14 0 26 -3 26 -7z m1250 -15 c0 -13 -3 -40 -6 -60 -6 -32 -11 -38 -31 -38
-24 0 -25 1 -18 53 9 63 11 67 36 67 13 0 19 -7 19 -22z m-2067 -45 c9 -31 15
-58 13 -60 -4 -5 -46 92 -46 106 0 6 4 11 9 11 4 0 15 -26 24 -57z m2863 26
c3 -5 -10 -46 -28 -91 l-33 -81 -3 44 c-2 24 -1 67 3 95 6 48 8 51 31 46 13
-2 27 -8 30 -13z m-2912 -40 c9 -23 16 -43 14 -44 -2 -1 -12 -7 -24 -13 -19
-10 -22 -6 -41 38 -21 50 -19 57 18 59 11 1 23 -14 33 -40z m2995 32 c11 -7
11 -16 -4 -55 -18 -46 -28 -53 -54 -37 -11 7 -11 16 4 55 18 46 28 53 54 37z
m-2730 -112 c12 -56 9 -69 -18 -69 -23 0 -49 99 -29 112 26 16 37 7 47 -43z
m2459 43 c16 -11 -5 -112 -26 -119 -27 -11 -34 13 -22 71 11 54 21 64 48 48z
m-618 -47 c395 -54 568 -93 898 -203 150 -49 174 -60 179 -80 8 -35 -12 -72
-41 -72 -13 0 -84 20 -157 44 -399 133 -784 210 -1284 257 -87 8 -208 10 -370
5 -515 -14 -843 -69 -1315 -220 -113 -36 -215 -66 -226 -66 -32 0 -49 25 -37
53 9 20 60 38 364 130 195 59 395 114 444 122 360 59 591 75 1020 69 232 -2
288 -7 525 -39z m-1921 -17 c12 -55 6 -68 -31 -68 -14 0 -18 8 -18 39 0 22 -3
46 -6 54 -5 14 5 20 38 26 3 0 11 -22 17 -51z m2624 -11 c-6 -71 -9 -76 -33
-70 -29 8 -31 14 -19 75 10 49 14 54 34 51 20 -4 22 -9 18 -56z m-2714 11 c0
-31 -1 -31 -10 -10 -5 13 -7 28 -3 33 10 16 14 9 13 -23z m-22 -82 c-2 -5 -13
-13 -26 -17 -19 -8 -24 -4 -35 24 -29 69 -29 77 -4 86 21 8 25 4 45 -37 13
-26 21 -51 20 -56z m2882 78 c4 -3 -29 -95 -38 -106 -3 -3 -18 -1 -32 5 l-26
12 24 53 c20 47 26 52 46 46 12 -3 24 -8 26 -10z m-1609 -89 l0 -35 -70 0 -70
0 0 35 0 35 70 0 70 0 0 -35z m170 0 l0 -35 -65 0 -65 0 0 35 0 35 65 0 65 0
0 -35z m133 25 l47 0 0 -36 0 -37 -37 7 c-21 3 -53 6 -70 6 -31 0 -33 2 -33
36 0 33 2 36 23 30 12 -3 43 -6 70 -6z m-473 -35 c0 -34 -1 -35 -37 -35 -21 0
-48 -3 -60 -6 -21 -6 -23 -3 -23 28 0 19 3 38 7 41 3 4 30 7 60 7 l53 0 0 -35z
m-160 -9 l0 -33 -61 -7 c-34 -4 -62 -6 -64 -4 -1 2 -6 17 -9 35 -7 31 -6 32
31 36 102 10 103 10 103 -27z m844 28 c10 -4 16 -18 16 -35 0 -27 -3 -29 -37
-29 -21 0 -55 3 -75 6 -31 5 -38 11 -38 29 0 12 3 25 7 28 8 9 106 9 127 1z
m159 -20 c22 -5 27 -11 27 -35 0 -32 -8 -34 -94 -23 -45 7 -46 8 -46 41 l0 35
43 -7 c23 -3 54 -8 70 -11z m-1171 -24 c3 -17 2 -32 -1 -34 -3 -2 -36 -7 -73
-11 l-68 -7 0 30 c0 28 4 32 38 37 20 4 44 8 52 10 40 8 48 4 52 -25z m1352
-34 c-3 -17 -8 -33 -9 -34 -2 -2 -29 1 -59 8 -44 9 -56 16 -56 30 0 43 7 47
71 37 l60 -10 -7 -31z m-1526 2 c3 -23 -2 -28 -35 -37 -59 -17 -83 -14 -84 9
-1 11 -2 26 -3 32 -1 14 44 27 89 25 25 -2 31 -7 33 -29z m1647 8 c58 -12 60
-13 57 -42 -2 -16 -5 -31 -8 -33 -2 -2 -34 1 -72 8 l-68 12 4 35 c5 38 4 38
87 20z m-1802 -33 c3 -16 4 -30 2 -32 -10 -9 -120 -30 -127 -23 -3 4 -10 19
-13 33 -6 25 -4 27 42 37 81 16 90 15 96 -15z m909 -13 l-4 -41 -57 3 c-55 3
-56 4 -59 35 -3 34 3 37 93 41 30 2 30 1 27 -38z m146 30 c30 0 32 -2 32 -35
l0 -35 -70 0 -70 0 0 41 0 42 38 -7 c20 -3 52 -6 70 -6z m-460 -42 l3 -36 -62
-7 c-68 -8 -81 0 -77 45 3 22 9 26 53 31 76 9 80 8 83 -33z m162 7 l0 -35 -65
0 -65 0 0 35 0 35 65 0 65 0 0 -35z m491 25 c27 0 28 -2 22 -32 -3 -18 -7 -35
-9 -37 -2 -2 -33 0 -69 4 l-65 7 0 35 0 36 46 -7 c26 -3 60 -6 75 -6z m779
-57 c0 -20 -5 -33 -12 -33 -38 2 -123 28 -122 38 1 7 2 23 3 36 l1 23 65 -15
c64 -16 65 -16 65 -49z m-1600 8 l0 -38 -56 -7 c-31 -4 -58 -5 -59 -4 -2 2 -5
19 -7 38 -3 34 -2 35 37 41 85 13 85 13 85 -30z m994 33 c17 -6 21 -31 10 -58
-5 -13 -15 -15 -43 -11 -80 13 -81 14 -81 45 0 29 1 30 49 30 27 0 56 -3 65
-6z m-1589 -35 c4 -17 5 -32 3 -33 -14 -11 -124 -34 -131 -27 -4 4 -9 21 -10
36 -2 26 3 30 38 41 71 22 92 18 100 -17z m1718 16 c48 -6 52 -12 41 -53 -6
-20 -11 -22 -43 -17 -92 15 -87 13 -83 51 3 26 8 34 21 30 9 -2 37 -7 64 -11z
m-1283 -12 c0 -10 3 -27 6 -39 5 -19 -1 -22 -52 -33 -32 -6 -61 -8 -65 -4 -3
5 -9 22 -12 40 -6 31 -5 32 31 38 20 4 42 8 47 10 26 9 45 4 45 -12z m1898
-10 c31 -5 32 -7 26 -42 -4 -20 -8 -37 -9 -38 -3 -5 -110 29 -119 37 -5 5 -5
21 -2 35 6 25 10 27 39 21 18 -4 47 -10 65 -13z m-459 -4 c49 -10 50 -11 44
-42 -3 -18 -6 -33 -7 -34 -1 -1 -28 4 -61 11 -35 7 -60 17 -59 24 1 7 2 21 3
32 1 23 11 24 80 9z m-2047 -34 c9 -36 6 -39 -58 -58 l-51 -15 -11 36 c-6 20
-10 36 -9 37 16 8 104 32 111 31 6 -1 13 -15 18 -31z m448 18 c0 -10 3 -28 6
-40 5 -19 0 -22 -51 -33 -31 -6 -62 -9 -69 -7 -13 5 -29 57 -20 66 4 4 103 29
122 30 6 1 12 -7 12 -16z m1764 -15 c57 -11 58 -11 52 -41 -3 -17 -8 -33 -11
-35 -7 -7 -125 19 -131 29 -8 14 7 59 20 59 7 0 39 -5 70 -12z m445 -9 c50
-17 61 -25 56 -38 -4 -9 -10 -24 -12 -33 -3 -10 -8 -18 -12 -18 -13 0 -121 36
-127 42 -10 11 7 68 20 68 7 0 40 -10 75 -21z m-969 -13 c196 -21 350 -49 623
-116 219 -53 410 -111 509 -154 44 -19 60 -43 47 -68 -16 -30 -74 -22 -310 47
-433 126 -666 170 -1009 190 -391 23 -470 21 -793 -25 -358 -50 -623 -111
-896 -204 -121 -42 -185 -30 -148 28 25 37 469 184 714 236 399 84 858 108
1263 66z m-1404 -21 c3 -20 5 -37 3 -39 -2 -1 -30 -10 -61 -18 l-57 -16 -10
30 c-17 48 -14 54 32 65 77 19 85 17 93 -22z m-437 -7 c13 -37 11 -39 -46 -61
l-43 -17 -15 37 c-8 20 -14 37 -13 38 10 6 85 33 95 34 6 1 16 -13 22 -31z
m2536 8 c44 -11 50 -16 47 -37 -4 -39 -17 -43 -77 -29 -31 7 -58 16 -60 19 -2
3 -1 18 2 34 6 31 16 32 88 13z m462 -26 c5 0 -20 -61 -28 -65 -11 -7 -89 15
-89 25 0 4 5 21 11 38 l10 31 47 -15 c26 -7 48 -14 49 -14z m-2720 -19 l10
-38 -52 -17 c-28 -9 -57 -16 -63 -16 -10 0 -38 68 -30 75 4 4 101 33 114 34 6
1 16 -16 21 -38z m-414 -13 c12 -29 12 -35 -2 -45 -14 -10 -19 -6 -32 25 -9
20 -14 40 -12 45 10 17 34 4 46 -25z m2847 7 c28 -10 34 -17 32 -36 -4 -38
-16 -42 -76 -23 -57 18 -60 22 -50 61 7 24 18 24 94 -2z m357 -3 c18 -12 -12
-76 -33 -68 -9 3 -18 6 -20 6 -7 0 -5 17 6 44 10 26 25 32 47 18z m-2953 -24
c12 -47 7 -55 -49 -75 -30 -12 -57 -18 -59 -14 -2 3 -7 22 -11 41 -6 34 -5 36
37 52 59 23 75 22 82 -4z m2778 -59 c-4 -37 -14 -40 -70 -22 -41 13 -52 21
-52 38 0 39 18 45 74 25 44 -15 51 -21 48 -41z m-1012 1 c285 -33 371 -47 574
-95 248 -57 360 -88 386 -105 10 -6 -464 -10 -1394 -10 -775 0 -1407 3 -1403
6 21 21 443 131 657 171 459 85 685 92 1180 33z m-1920 -6 c14 -40 10 -46 -42
-67 l-37 -15 -14 36 -15 37 41 22 c23 12 45 22 49 23 3 0 12 -16 18 -36z
m3063 -17 c16 -6 17 -9 2 -37 -17 -33 -22 -33 -86 -6 -26 11 -27 13 -14 43 14
32 14 32 47 19 18 -7 41 -16 51 -19z m-1818 -409 c18 -154 2 -200 -135 -386
-36 -48 -21 -83 58 -143 58 -44 63 -50 37 -46 -99 18 -124 18 -162 -2 l-38
-19 -229 -594 c-126 -326 -230 -595 -232 -597 -2 -2 -23 4 -47 13 l-44 16 219
578 c121 317 222 589 225 604 l5 28 26 -20 c29 -24 63 -25 101 -5 33 16 41 33
41 81 0 51 -39 87 -89 82 l-39 -3 22 20 c19 17 24 36 29 101 10 120 37 205 86
269 23 30 45 55 49 55 4 0 27 18 51 40 24 22 46 38 49 35 2 -2 10 -50 17 -107z
m-432 -70 c-43 -77 -51 -129 -29 -196 17 -49 73 -114 125 -141 20 -11 20 -13
4 -37 -9 -14 -16 -41 -15 -60 l1 -34 -28 21 c-35 26 -144 28 -190 5 -58 -30
-94 -103 -109 -219 l-7 -58 -40 53 c-104 140 -126 327 -55 473 47 96 187 210
299 241 83 22 84 21 44 -48z m-1158 -460 c-4 -51 -11 -95 -14 -98 -4 -3 -35
-27 -70 -54 -34 -26 -63 -47 -65 -45 -1 2 -8 18 -15 35 -7 18 -26 44 -42 60
-16 15 -29 35 -29 44 0 9 -7 25 -15 36 -22 29 -18 34 23 34 62 0 150 26 184
53 18 14 37 26 42 27 4 0 5 -42 1 -92z m1349 82 c56 -21 36 -100 -25 -100 -45
0 -65 56 -32 92 19 21 23 21 57 8z m2438 -50 c15 -5 56 -11 92 -15 37 -4 66
-10 66 -14 0 -16 -40 -83 -69 -116 -17 -19 -34 -47 -37 -60 -8 -33 -18 -32
-70 11 l-44 36 0 90 c0 82 2 89 18 83 9 -4 29 -11 44 -15z m-889 -80 c106 -16
268 -45 360 -65 92 -19 171 -35 175 -35 16 -1 -81 -46 -194 -90 -67 -26 -165
-56 -218 -66 -87 -16 -97 -20 -94 -38 4 -27 181 -116 296 -149 l84 -24 -113
-42 c-112 -42 -117 -43 -376 -67 -60 -6 -68 -21 -27 -53 38 -30 253 -138 291
-146 18 -3 35 -10 38 -14 9 -16 -256 -61 -357 -61 -88 0 -98 -2 -98 -18 0 -37
176 -151 295 -192 l50 -17 -40 -12 c-95 -28 -208 -25 -505 14 -385 50 -480 48
-760 -20 -209 -50 -382 -75 -522 -75 -95 0 -228 19 -228 33 0 6 292 760 397
1023 2 7 56 9 166 6 157 -4 170 -3 432 42 652 112 652 112 948 66z m-3267
-225 c14 -13 42 -27 60 -31 19 -3 34 -9 34 -13 0 -4 -13 -20 -30 -36 l-30 -28
-20 26 c-17 21 -30 27 -61 27 -42 0 -51 13 -20 30 11 5 23 19 26 30 8 25 8 25
41 -5z m4507 -57 c-2 -5 -21 -8 -42 -8 -25 0 -44 -7 -56 -20 -24 -27 -36 -25
-68 8 -30 32 -27 42 14 42 17 0 37 11 54 29 l28 28 37 -36 c20 -20 35 -39 33
-43z m-556 -950 c-3 -494 -16 -735 -37 -711 -4 4 -19 46 -34 93 -76 240 -234
469 -411 596 l-29 22 29 53 c47 88 189 265 256 322 58 48 204 144 222 146 5 1
6 -234 4 -521z m-3640 -182 c-24 -28 -54 -79 -66 -113 -13 -34 -39 -80 -59
-103 -28 -33 -38 -57 -49 -114 -15 -78 -37 -113 -54 -84 -5 9 -22 19 -38 23
-23 5 -39 0 -72 -24 -23 -17 -45 -29 -48 -26 -3 4 -1 9 5 13 21 15 37 73 31
117 -7 45 -6 45 24 45 66 0 119 55 119 123 0 75 -125 135 -188 91 -23 -16 -42
-12 -42 10 0 20 51 63 102 86 79 35 210 119 263 169 28 26 64 58 80 70 l30 23
3 -127 3 -127 -44 -52z m3851 216 c51 -53 218 -165 273 -183 30 -10 109 -74
109 -89 0 -3 -4 -11 -9 -18 -6 -10 -16 -9 -45 9 -61 36 -127 15 -162 -53 -38
-74 14 -168 93 -168 33 0 33 0 27 -39 -4 -27 0 -51 14 -85 24 -53 11 -62 -28
-21 -27 29 -65 32 -99 8 -22 -15 -25 -15 -36 1 -7 9 -16 45 -20 80 -5 55 -11
68 -40 96 -20 20 -48 65 -66 109 -17 42 -42 90 -55 108 -22 30 -24 40 -24 162
0 85 4 131 11 131 5 0 31 -22 57 -48z m-2908 -62 c47 -23 87 -44 89 -46 8 -7
-30 -54 -45 -54 -18 0 -217 114 -232 133 -5 7 -13 22 -17 35 l-6 22 63 -23
c35 -14 101 -43 148 -67z m-280 -15 c17 -9 30 -17 30 -19 0 -2 -9 -24 -20 -50
l-21 -46 -39 26 c-48 32 -56 78 -17 94 31 12 34 12 67 -5z m2463 -1 c75 -39
215 -196 298 -334 67 -110 158 -374 159 -457 0 -55 -16 -37 -28 32 -21 112
-71 245 -145 387 -80 155 -145 236 -258 319 -38 29 -69 56 -69 60 0 12 7 11
43 -7z m-2348 -10 l24 -16 -23 -46 c-25 -49 -49 -75 -78 -85 -23 -8 -23 -8 7
76 36 99 33 96 70 71z m183 -107 c23 -18 43 -66 79 -186 49 -166 41 -231 -51
-373 l-37 -58 -87 0 c-81 1 -167 11 -177 22 -3 3 2 26 11 51 13 40 20 47 42
47 41 1 72 32 72 72 0 28 5 35 29 45 28 10 29 9 52 -38 20 -45 36 -58 51 -44
3 4 -7 37 -23 75 -48 113 -53 164 -29 262 12 46 23 90 26 99 3 11 -7 19 -33
27 -36 11 -39 10 -75 -25 -21 -20 -40 -35 -42 -32 -2 2 11 32 31 67 l35 62 57
-31 c31 -18 62 -37 69 -42z m2166 41 c18 -13 69 -63 112 -113 65 -74 93 -118
158 -247 44 -87 78 -160 75 -162 -3 -3 -113 103 -246 236 l-242 241 42 33 c50
40 59 41 101 12z m-2008 -146 c44 -124 57 -151 85 -174 45 -36 241 -109 531
-198 l236 -72 -32 -57 c-17 -31 -69 -95 -116 -142 -76 -76 -94 -89 -165 -116
-102 -39 -161 -50 -310 -58 l-120 -5 -53 67 c-29 38 -84 103 -122 146 l-69 79
60 119 c33 66 62 139 65 162 4 33 -5 74 -45 196 l-50 155 21 28 c11 16 23 26
27 23 3 -4 29 -73 57 -153z m-519 103 c23 -14 43 -28 43 -30 0 -2 -4 -15 -9
-28 -9 -23 -8 -25 41 -30 28 -4 53 -8 55 -11 3 -3 2 -18 -2 -35 -10 -45 -44
-41 -140 17 -70 41 -80 51 -83 78 -3 31 18 64 40 64 6 0 31 -11 55 -25z m268
-62 c-4 -21 -9 -41 -12 -45 -3 -7 -36 5 -51 17 -5 4 52 62 62 64 4 0 5 -16 1
-36z m2377 -250 c235 -238 266 -273 273 -308 6 -36 4 -41 -27 -67 -18 -15 -38
-28 -44 -28 -10 0 -513 521 -557 576 -17 22 -17 23 29 58 26 20 50 36 53 36 4
0 126 -120 273 -267z m-2666 160 c74 -42 84 -51 82 -73 -2 -16 -13 -30 -30
-38 -24 -11 -34 -9 -102 25 -73 36 -76 39 -76 73 0 35 14 60 33 60 5 0 47 -21
93 -47z m225 27 c19 0 41 -49 34 -79 -6 -27 -9 -29 -34 -21 -16 4 -38 13 -49
19 -20 11 -20 12 -4 51 11 25 22 38 30 35 8 -3 18 -5 23 -5z m2569 -571 l40
-47 -48 -36 -47 -37 -60 63 c-79 83 -402 431 -449 485 l-37 42 43 31 43 32
238 -244 c130 -133 255 -264 277 -289z m-2620 449 c43 -25 53 -39 44 -63 -10
-25 -46 -27 -99 -6 -36 14 -45 21 -33 26 9 3 22 20 28 36 7 16 14 29 17 29 2
0 22 -10 43 -22z m-230 -23 c66 -33 70 -37 70 -69 0 -48 -24 -53 -96 -19 -44
21 -60 34 -62 52 -4 25 5 71 13 71 3 0 37 -16 75 -35z m-1106 -3 c2 -4 -4 -19
-14 -32 -18 -24 -20 -24 -37 -8 -16 17 -16 19 2 33 22 16 41 19 49 7z m3407
-70 c352 -369 481 -512 460 -512 -8 0 -221 220 -348 360 -27 30 -84 91 -126
134 -43 44 -77 83 -77 88 0 19 21 3 91 -70z m1598 48 c19 -17 21 -23 11 -35
-17 -21 -37 -19 -50 6 -12 21 -7 49 7 49 4 -1 19 -10 32 -20z m-3574 -33 c-4
-8 -14 -18 -23 -22 -14 -5 -15 -4 -4 6 6 7 12 22 12 33 0 14 3 17 10 10 6 -6
8 -18 5 -27z m-158 -23 c49 -19 67 -55 40 -81 -14 -14 -20 -14 -66 3 -48 17
-63 35 -41 49 6 3 10 15 10 26 0 23 3 23 57 3z m2148 -94 c55 -59 166 -178
248 -264 81 -86 147 -160 147 -164 0 -5 -71 -57 -157 -118 -86 -60 -181 -129
-211 -153 -61 -49 -66 -47 -75 29 -16 132 -112 290 -232 381 -30 23 -55 45
-55 48 0 4 11 18 25 31 21 19 25 33 25 78 0 54 0 54 86 148 48 52 89 94 93 93
3 0 51 -49 106 -109z m-2312 35 l56 -24 -16 -45 c-14 -37 -20 -43 -31 -34 -13
12 -76 128 -68 128 2 0 29 -11 59 -25z m253 -32 c-10 -26 -18 -8 -9 23 5 21 8
24 11 11 2 -10 1 -25 -2 -34z m-121 -25 c14 -6 25 -14 25 -17 -1 -3 -49 -134
-108 -290 -63 -168 -114 -288 -124 -295 -14 -8 -22 -6 -39 11 l-22 21 108 279
c59 153 110 284 112 291 6 15 15 15 48 0z m1861 -87 c6 -68 -6 -85 -94 -135
-59 -33 -60 -34 -66 -12 -14 51 -6 111 19 149 14 20 30 37 35 37 5 0 15 6 22
13 7 6 24 19 38 28 24 16 25 16 33 -4 4 -11 10 -46 13 -76z m-2941 59 c-14
-15 -21 -17 -32 -9 -22 19 -15 29 19 29 30 0 31 0 13 -20z m2597 -24 c29 -13
69 -39 90 -57 31 -30 37 -42 42 -93 l6 -58 -25 6 c-70 18 -135 49 -150 73 -17
25 -35 153 -22 153 4 0 30 -11 59 -24z m2078 17 c0 -5 -5 -15 -10 -23 -9 -13
-11 -13 -20 0 -15 22 -12 30 10 30 11 0 20 -3 20 -7z m-2205 -53 c14 -23 -180
-260 -264 -320 -67 -49 -171 -80 -305 -90 -161 -13 -256 -13 -236 0 8 5 45 10
81 10 92 0 263 26 331 49 101 35 208 126 285 242 77 116 93 133 108 109z m59
-115 c9 -13 30 -32 46 -40 l30 -16 -55 -64 c-73 -86 -100 -128 -131 -205 -23
-57 -27 -83 -31 -216 l-5 -151 -90 48 c-103 57 -297 171 -416 245 l-83 52 58
6 c289 29 393 80 530 261 64 85 83 104 104 105 18 0 32 -9 43 -25z m452 -119
c44 -41 92 -91 106 -112 32 -46 93 -210 102 -276 8 -51 -9 -77 -20 -31 -52
231 -105 322 -265 455 -36 30 -40 37 -23 38 12 0 53 -30 100 -74z m-350 2
c-49 -57 -109 -144 -133 -193 -27 -53 -53 -170 -61 -275 l-6 -85 -8 50 c-17
100 8 248 58 347 30 59 150 198 171 198 11 0 5 -13 -21 -42z m184 14 c0 -38
43 -190 71 -249 37 -79 138 -173 242 -228 42 -22 77 -43 77 -47 0 -12 -6 -10
-98 36 -181 91 -240 166 -285 361 -14 61 -29 118 -32 128 -5 12 -2 17 9 17 9
0 16 -8 16 -18z m150 -90 c66 -72 130 -186 149 -267 7 -27 14 -58 17 -68 4
-13 -6 -10 -45 14 -128 80 -176 161 -235 402 l-7 29 30 -21 c17 -12 58 -52 91
-89z m-235 -24 c-8 -135 -38 -253 -82 -319 -36 -55 -233 -216 -233 -191 0 5
45 49 99 96 149 129 182 203 197 439 3 55 10 97 16 97 7 0 8 -41 3 -122z m-64
-93 c-14 -105 -54 -186 -128 -259 l-58 -58 -3 62 c-6 118 46 255 141 367 l52
62 3 -47 c2 -26 -1 -83 -7 -127z m134 28 c28 -91 55 -152 85 -190 26 -34 119
-106 177 -138 l52 -29 -53 -61 c-29 -33 -77 -91 -106 -130 -55 -74 -81 -94
-117 -95 -13 0 -97 42 -188 93 l-164 93 48 37 c154 118 230 265 231 450 0 31
2 57 4 57 3 0 17 -39 31 -87z m-2059 -284 c37 -61 97 -148 134 -192 61 -73 68
-86 74 -136 11 -100 44 -299 50 -310 10 -15 -18 -4 -92 40 -44 25 -59 38 -48
42 23 9 56 82 56 124 0 70 -60 120 -131 110 -44 -6 -54 3 -63 56 -11 59 -61
108 -117 114 -31 4 -56 0 -77 -11 -48 -25 -49 -20 -9 22 23 23 44 58 52 86 16
52 81 166 95 166 5 0 39 -50 76 -111z m3287 9 c14 -24 30 -63 37 -88 6 -25 19
-54 29 -65 9 -11 23 -28 30 -38 13 -16 12 -16 -15 -2 -37 19 -68 19 -110 -1
-39 -18 -84 -86 -84 -125 0 -37 -18 -49 -78 -49 -47 0 -58 -4 -82 -30 -45 -48
-47 -114 -3 -162 13 -15 8 -20 -63 -62 -43 -24 -79 -44 -80 -43 -4 6 17 166
25 189 5 15 50 74 99 130 91 104 190 246 237 338 14 28 27 50 29 50 2 0 15
-19 29 -42z m-3668 -668 c6 0 31 -41 55 -90 55 -113 70 -115 87 -10 6 41 12
76 12 78 1 1 12 2 26 2 30 0 30 6 8 -152 -14 -108 -20 -128 -34 -128 -37 0
-52 16 -94 101 -52 103 -69 108 -80 21 -9 -84 -13 -92 -42 -92 -24 0 -25 2
-20 38 3 20 11 83 18 140 12 97 14 103 33 98 12 -3 26 -6 31 -6z m3924 -41
c41 -14 64 -60 65 -124 1 -69 -18 -108 -66 -135 -71 -40 -165 -13 -194 55 -19
45 -18 119 2 156 26 52 117 74 193 48z m-373 -54 c19 -15 19 -15 0 -30 -13
-10 -24 -11 -37 -5 -30 17 -59 11 -86 -16 -22 -22 -24 -31 -19 -67 4 -22 16
-56 27 -74 37 -60 112 -56 133 7 8 24 18 36 34 38 18 3 22 -1 22 -21 0 -55
-72 -107 -148 -107 -30 0 -45 7 -71 34 -41 43 -63 112 -50 160 19 70 142 121
195 81z m-3094 -21 c24 -9 55 -29 71 -45 62 -67 13 -218 -77 -234 -40 -8 -113
18 -148 52 -24 23 -28 35 -28 81 0 64 24 110 73 141 39 25 54 26 109 5z m1278
-110 c8 -3 102 -12 210 -20 168 -12 212 -12 320 0 69 7 128 11 133 9 6 -4 11
-73 5 -73 -2 0 -75 -7 -163 -15 -190 -18 -360 -19 -545 -4 -196 15 -180 7
-180 88 l0 69 103 -24 c56 -13 109 -27 117 -30z m1534 9 c2 -16 7 -64 11 -108
3 -44 8 -97 11 -117 5 -35 4 -38 -32 -53 l-37 -15 -71 77 c-39 43 -84 91 -99
107 -15 16 -27 29 -25 30 2 0 14 7 27 14 13 8 27 10 30 5 4 -4 36 -43 71 -85
57 -71 77 -87 92 -73 3 3 -3 54 -13 113 -11 59 -19 110 -19 114 0 6 17 13 42
17 3 0 9 -11 12 -26z m-2517 -143 c24 -122 39 -128 77 -30 27 69 37 78 65 61
12 -8 6 -31 -33 -135 -27 -69 -54 -126 -60 -126 -34 0 -52 31 -71 121 -26 122
-42 128 -80 30 -15 -39 -30 -71 -35 -71 -17 0 -40 12 -40 21 0 6 23 65 51 133
l51 124 28 -16 c25 -15 30 -27 47 -112z m2211 -6 c47 -33 82 -137 62 -188 -13
-36 -35 -53 -114 -88 l-61 -27 -52 110 c-29 61 -54 118 -55 127 -2 12 16 26
62 49 72 35 124 41 158 17z m-1799 -64 c38 -12 79 -32 91 -45 20 -21 22 -32
18 -89 -4 -71 -24 -109 -71 -136 -22 -12 -34 -12 -104 4 -43 10 -83 21 -89 25
-17 10 55 274 73 267 7 -3 44 -15 82 -26z m1411 -72 c16 -29 16 -28 -27 -95
-13 -19 -12 -23 7 -40 45 -40 79 -77 75 -84 -3 -3 -16 -9 -30 -11 -21 -4 -33
3 -66 43 -35 42 -46 49 -76 49 -35 0 -35 -1 -29 -32 19 -87 19 -98 3 -98 -8 0
-22 -2 -29 -5 -11 -4 -19 24 -37 122 -13 71 -25 133 -28 139 -5 14 118 42 177
40 37 -1 47 -5 60 -28z m-1177 -2 c8 -8 20 -56 27 -109 20 -151 32 -152 94 -8
28 66 44 91 57 91 10 0 20 -4 24 -10 4 -6 -103 -239 -119 -257 -2 -3 -76 17
-76 20 0 1 -11 65 -25 141 -14 77 -25 141 -25 143 0 9 31 1 43 -11z m817 -36
c25 -13 60 -93 60 -136 0 -41 -44 -112 -78 -125 -36 -14 -110 -11 -142 6 -38
20 -60 72 -60 141 0 48 4 57 35 88 19 19 44 37 57 39 32 7 105 -1 128 -13z
m-351 -3 c13 -6 30 -22 38 -34 14 -21 13 -23 -12 -29 -21 -5 -33 -1 -55 21
-26 25 -31 26 -63 16 -40 -14 -46 -23 -53 -100 -7 -65 5 -86 54 -100 27 -8 36
-6 61 15 31 25 56 31 66 14 13 -21 -23 -57 -69 -70 -40 -11 -52 -10 -92 5 -56
21 -84 62 -84 123 0 95 50 152 134 152 28 0 62 -6 75 -13z m108 -454 c-16 -16
-18 -16 -34 0 -16 16 -15 17 17 17 32 0 33 -1 17 -17z m-497 -353 c0 -21 -25
-61 -47 -76 -29 -18 -37 -14 -29 14 13 40 76 92 76 62z m1024 -49 c27 -47 10
-52 -30 -9 -41 45 -48 80 -11 56 12 -9 30 -30 41 -47z"/>
<path d="M3647 5462 c-37 -103 -67 -191 -67 -195 0 -5 7 -7 16 -5 11 2 37 59
80 181 67 187 72 207 52 207 -8 0 -42 -81 -81 -188z"/>
<path d="M4230 4850 c-80 -6 -220 -34 -248 -49 -8 -5 3 -24 38 -63 27 -31 50
-62 50 -69 0 -7 -8 -36 -17 -66 l-17 -53 -88 0 c-48 0 -88 3 -88 8 -1 4 -20
29 -44 56 l-44 50 -50 -100 c-27 -54 -59 -128 -70 -164 -25 -75 -55 -201 -49
-206 2 -2 51 32 109 75 101 74 109 78 173 85 37 4 70 4 73 1 3 -2 -6 -31 -19
-62 -23 -52 -36 -67 -139 -147 -103 -80 -111 -88 -80 -83 19 3 140 15 268 28
127 12 232 25 232 28 0 3 -17 26 -39 51 l-38 45 26 72 26 73 91 0 92 0 42 -54
c63 -83 64 -83 94 -32 47 80 152 386 133 386 -3 0 -52 -22 -108 -50 -98 -48
-106 -50 -186 -50 -60 0 -83 3 -83 13 0 22 30 110 42 125 12 14 153 122 194
149 15 10 -1 12 -86 11 -58 -1 -143 -4 -190 -8z m-40 -193 c0 -2 -13 -43 -30
-92 -16 -49 -30 -90 -30 -92 0 -2 59 -3 132 -3 72 0 128 -3 124 -7 -4 -5 -67
-12 -139 -18 l-132 -10 -31 -89 c-17 -50 -36 -92 -42 -94 -18 -6 -15 17 13 98
14 40 25 78 25 83 0 6 -43 6 -110 2 -97 -6 -110 -5 -110 9 0 14 16 16 119 16
l120 0 32 100 c19 58 39 100 46 100 7 0 13 -1 13 -3z"/>
<path d="M5257 3572 c-34 -37 -12 -87 35 -80 14 2 26 13 33 32 8 24 6 31 -14
47 -29 24 -34 24 -54 1z m41 -34 c-6 -18 -28 -21 -28 -4 0 9 7 16 16 16 9 0
14 -5 12 -12z"/>
<path d="M5120 3449 c-25 -46 15 -93 58 -70 28 15 35 40 17 67 -20 30 -60 32
-75 3z m50 -30 c0 -5 -4 -9 -10 -9 -5 0 -10 7 -10 16 0 8 5 12 10 9 6 -3 10
-10 10 -16z"/>
<path d="M5507 3063 c-14 -13 -7 -71 9 -77 47 -18 80 11 68 59 -5 20 -12 25
-38 25 -18 0 -36 -3 -39 -7z m45 -38 c0 -5 -5 -11 -11 -13 -6 -2 -11 4 -11 13
0 9 5 15 11 13 6 -2 11 -8 11 -13z"/>
<path d="M5012 3348 c-30 -30 -3 -82 40 -76 29 4 47 50 28 72 -15 19 -51 21
-68 4z m43 -48 c-5 -8 -11 -8 -17 -2 -6 6 -7 16 -3 22 5 8 11 8 17 2 6 -6 7
-16 3 -22z"/>
<path d="M5382 2948 c-26 -26 -7 -78 28 -78 21 0 50 31 50 53 0 30 -55 48 -78
25z m40 -33 c0 -5 -5 -11 -11 -13 -6 -2 -11 4 -11 13 0 9 5 15 11 13 6 -2 11
-8 11 -13z"/>
<path d="M5861 1624 c-32 -40 -29 -126 4 -159 28 -29 76 -33 99 -10 44 45 42
159 -4 182 -41 21 -76 16 -99 -13z"/>
<path d="M2464 1569 c-50 -18 -92 -130 -63 -165 22 -27 67 -45 95 -38 19 5 33
21 50 58 13 28 24 60 24 71 0 47 -62 91 -106 74z"/>
<path d="M4902 1312 c-24 -12 -31 -20 -26 -34 13 -43 75 -168 83 -168 4 0 23
10 42 23 42 28 49 69 20 124 -33 65 -67 81 -119 55z"/>
<path d="M3180 1252 c0 -4 -11 -46 -24 -94 l-24 -88 39 -11 c62 -19 97 12 114
105 6 31 3 39 -23 66 -28 27 -82 42 -82 22z"/>
<path d="M4535 1215 c-5 -2 -22 -6 -37 -9 -29 -7 -35 -25 -21 -75 5 -20 10
-22 41 -18 43 7 72 33 72 63 0 19 -27 47 -42 43 -2 0 -7 -2 -13 -4z"/>
<path d="M4165 1148 c-11 -6 -25 -19 -32 -27 -18 -23 -15 -90 5 -131 15 -31
22 -35 58 -38 36 -3 45 1 64 25 19 24 21 36 17 82 -9 83 -56 121 -112 89z"/>
</g>
</svg>
